<?xml version="1.0" encoding="UTF-8" standalone="no"?>
<!DOCTYPE svg PUBLIC "-//W3C//DTD SVG 1.1//EN"
 "http://www.w3.org/Graphics/SVG/1.1/DTD/svg11.dtd">
<!-- Generated by graphviz version 14.1.3 (20260303.0454)
 -->
<!-- Pages: 1 -->
<svg width="130pt" height="200pt"
 viewBox="0.00 0.00 130.00 200.00" xmlns="http://www.w3.org/2000/svg" xmlns:xlink="http://www.w3.org/1999/xlink">
<g id="graph0" class="graph" transform="scale(1 1) rotate(0) translate(4 196.04)">
<polygon fill="white" stroke="none" points="-4,4 -4,-196.04 126,-196.04 126,4 -4,4"/>
<!-- q0 -->
<g id="node1" class="node">
<title>q0</title>
<ellipse fill="none" stroke="black" cx="51.77" cy="-174.04" rx="46.23" ry="18"/>
<text xml:space="preserve" text-anchor="middle" x="51.77" y="-168.99" font-family="Times New Roman,serif" font-size="14.00">q0 (Start)</text>
</g>
<!-- q0&#45;&gt;q0 -->
<g id="edge1" class="edge">
<title>q0&#45;&gt;q0</title>
<path fill="none" stroke="black" d="M93.47,-182.32C106.12,-182.11 116,-179.35 116,-174.04 116,-170.47 111.54,-168.05 104.78,-166.78"/>
<polygon fill="black" stroke="black" points="105.25,-163.31 94.98,-165.89 104.62,-170.28 105.25,-163.31"/>
<text xml:space="preserve" text-anchor="middle" x="119" y="-168.99" font-family="Times New Roman,serif" font-size="14.00">a</text>
</g>
<!-- q1 -->
<g id="node2" class="node">
<title>q1</title>
<ellipse fill="none" stroke="black" cx="51.77" cy="-51.77" rx="47.77" ry="47.77"/>
<ellipse fill="none" stroke="black" cx="51.77" cy="-51.77" rx="51.77" ry="51.77"/>
<text xml:space="preserve" text-anchor="middle" x="51.77" y="-46.72" font-family="Times New Roman,serif" font-size="14.00">q1 (Final)</text>
</g>
<!-- q0&#45;&gt;q1 -->
<g id="edge2" class="edge">
<title>q0&#45;&gt;q1</title>
<path fill="none" stroke="black" d="M51.77,-155.55C51.77,-144.7 51.77,-130.03 51.77,-115.18"/>
<polygon fill="black" stroke="black" points="55.27,-115.36 51.77,-105.36 48.27,-115.36 55.27,-115.36"/>
<text xml:space="preserve" text-anchor="middle" x="55.14" y="-124.74" font-family="Times New Roman,serif" font-size="14.00">b</text>
</g>
</g>
</svg>
